<mxfile host="app.diagrams.net" modified="2024-02-27T22:33:34.992Z" agent="Mozilla/5.0 (Macintosh; Intel Mac OS X 10_15_7) AppleWebKit/537.36 (KHTML, like Gecko) Chrome/122.0.0.0 Safari/537.36" version="23.1.7" etag="zsfFvrkCn5VWg3ifloys" type="github">
  <diagram name="Sayfa -1" id="e3KTp9kkMCEFIpBZj2m-">
    <mxGraphModel>
      <root>
        <mxCell id="0" />
        <mxCell id="1" parent="0" />
      </root>
    </mxGraphModel>
  </diagram>
</mxfile>
